# xmcd CD database file
#
# Track frame offsets:
#	183
#	12373
#	28870
#	39553
#	51270
#	65060
#	77163
#	93240
#	106083
#	119160
#	130360
#	139470
#	152750
#	170765
#	186508
#	198178
#
# Disc length: 3042 seconds
#
# Revision: 0
# Processed by: cddbd v1.5.1PL2 Copyright (c) Steve Scherf et al.
# Submitted via: CDex 1.51
#
DISCID=ed0be010
DTITLE=Various Artist - Welcome to the Blues CD2
DYEAR=1900
DGENRE=Blues
TTITLE0=Roosevelt Sykes - Leaving Chicago
TTITLE1=Roosevelt Sykes - N.Y.Boogie
TTITLE2=Jimmy Reed - Baby What You Want Me To Do
TTITLE3=John Lee Hooker - Boogie Chillun
TTITLE4=Eddie Taylor - Big Town Playboy
TTITLE5=Billy Boy Arnold - I Wish You Would
TTITLE6=Little Johnny Taylor - Part Time Love
TTITLE7=T.Bone Walker - Stormy Monday Blues
TTITLE8=Elmore James - Dust My Broom
TTITLE9=Frank Frost - Jelly Roll King
TTITLE10=Memphis Slim - Steppin' Out
TTITLE11=Howlin' Wolf - Howlin' For My Baby
TTITLE12=Lightnin' Hopkins - Devil is Watching You
TTITLE13=Albert King - Born Under A Bad Sign
TTITLE14=Little Junior Parker - Love My Baby
TTITLE15=Liz Mac Comb - Rock Me Like A Baby
EXTD=
EXTT0=
EXTT1=
EXTT2=
EXTT3=
EXTT4=
EXTT5=
EXTT6=
EXTT7=
EXTT8=
EXTT9=
EXTT10=
EXTT11=
EXTT12=
EXTT13=
EXTT14=
EXTT15=
PLAYORDER=
